<svg width="674" height="82" viewBox="0 0 674 82" fill="none" xmlns="http://www.w3.org/2000/svg">
<path d="M12.408 7.16H0.552V0.607994H12.408V7.16ZM19.792 80.688H5.648L3.464 78.088C1.73067 75.9387 0.864 73.4773 0.864 70.704V15.376H12.72V69.144C12.72 72.5413 13.968 75.4187 16.464 77.776L19.792 80.688ZM57.7398 15.064C67.1691 15.064 74.3105 17.456 79.1638 22.24C84.0865 26.9547 86.5478 34.0267 86.5478 43.456V81.104H74.6918V44.808C74.6918 38.2907 73.0971 33.472 69.9078 30.352C66.7878 27.232 61.9345 25.672 55.3478 25.672C48.4838 25.672 43.3185 27.648 39.8518 31.6C36.3851 35.4827 34.6518 40.752 34.6518 47.408V81.104H22.7958V15.168H34.6518V19.224L34.2358 20.264C31.6011 26.3653 29.9718 32.64 29.3478 39.088C28.7931 45.536 29.2091 51.9493 30.5958 58.328C31.1505 51.672 32.0171 45.536 33.1958 39.92C33.7505 37.5627 34.3745 35.2053 35.0678 32.848C35.7611 30.4213 36.5585 28.2027 37.4598 26.192C38.3611 24.1813 39.3665 22.4133 40.4758 20.888C41.6545 19.3627 42.9371 18.288 44.3238 17.664C46.3345 16.6933 48.4491 16.0347 50.6678 15.688C52.8865 15.272 55.2438 15.064 57.7398 15.064ZM129.037 15.064C138.466 15.064 145.607 17.456 150.461 22.24C155.383 26.9547 157.845 34.0267 157.845 43.456V81.104H145.989V44.808C145.989 38.2907 144.394 33.472 141.205 30.352C138.085 27.232 133.231 25.672 126.645 25.672C119.781 25.672 114.615 27.648 111.149 31.6C107.682 35.4827 105.949 40.752 105.949 47.408V81.104H94.0927V15.168H105.949V19.224L105.533 20.264C102.898 26.3653 101.269 32.64 100.645 39.088C100.09 45.536 100.506 51.9493 101.893 58.328C102.447 51.672 103.314 45.536 104.493 39.92C105.047 37.5627 105.671 35.2053 106.365 32.848C107.058 30.4213 107.855 28.2027 108.757 26.192C109.658 24.1813 110.663 22.4133 111.773 20.888C112.951 19.3627 114.234 18.288 115.621 17.664C117.631 16.6933 119.746 16.0347 121.965 15.688C124.183 15.272 126.541 15.064 129.037 15.064ZM205.534 14.648C208.862 14.648 212.12 14.96 215.31 15.584C218.568 16.208 221.654 17.1787 224.566 18.496C227.547 19.8133 230.286 21.512 232.782 23.592C235.278 25.6027 237.462 28.0293 239.334 30.872C240.79 33.0213 241.864 35.136 242.558 37.216C243.251 39.296 243.736 41.168 244.014 42.832C244.291 44.7733 244.395 46.6453 244.326 48.448L185.774 48.136L179.534 45.432C179.395 46.888 179.395 48.4827 179.534 50.216C179.742 51.88 180.192 53.6133 180.886 55.416C181.648 57.2187 182.688 59.0213 184.006 60.824C185.392 62.5573 187.23 64.2213 189.518 65.816C192.083 67.6187 194.96 68.9707 198.15 69.872C201.408 70.704 204.979 71.12 208.862 71.12C218.222 71.12 225.744 68.4853 231.43 63.216L239.334 70.912C237.323 72.8533 235.07 74.5173 232.574 75.904C230.147 77.2213 227.582 78.296 224.878 79.128C222.174 79.96 219.4 80.584 216.558 81C213.784 81.3467 211.046 81.52 208.342 81.52C200.16 81.52 192.811 80.0987 186.294 77.256C183.312 75.8693 180.574 74.2053 178.078 72.264C175.582 70.3227 173.467 68.1387 171.734 65.712C170 63.216 168.648 60.512 167.678 57.6C166.707 54.6187 166.222 51.4293 166.222 48.032C166.222 42.6933 167.331 37.944 169.55 33.784C171.768 29.624 174.68 26.1227 178.286 23.28C181.96 20.4373 186.155 18.288 190.87 16.832C195.654 15.376 200.542 14.648 205.534 14.648ZM230.702 43.456C230.286 40.2667 229.28 37.528 227.686 35.24C226.16 32.8827 224.219 30.9413 221.862 29.416C219.574 27.8213 217.008 26.6427 214.166 25.88C211.323 25.1173 208.446 24.736 205.534 24.736C202.552 24.736 199.64 25.1173 196.798 25.88C194.024 26.6427 191.494 27.8213 189.206 29.416C186.918 30.9413 184.976 32.8827 183.382 35.24C181.856 37.528 180.886 40.2667 180.47 43.456H230.702ZM274.852 17.664C276.863 16.6933 278.977 16.0347 281.196 15.688C283.415 15.272 285.772 15.064 288.268 15.064H301.06V25.776C300.852 25.776 299.985 25.776 298.46 25.776C296.935 25.7067 295.271 25.672 293.468 25.672C291.665 25.672 290.001 25.672 288.476 25.672C286.951 25.672 286.084 25.672 285.876 25.672C279.012 25.672 273.847 27.648 270.38 31.6C266.913 35.4827 265.18 40.752 265.18 47.408V81.104H253.324V15.168H265.18V19.224L264.764 20.264C262.129 26.3653 260.5 32.64 259.876 39.088C259.321 45.536 259.737 51.9493 261.124 58.328C261.679 51.672 262.545 45.536 263.724 39.92C264.279 37.5627 264.903 35.2053 265.596 32.848C266.289 30.4213 267.087 28.2027 267.988 26.192C268.889 24.1813 269.895 22.4133 271.004 20.888C272.183 19.3627 273.465 18.288 274.852 17.664ZM352.124 46.472C355.383 47.512 358.156 49.28 360.444 51.776C362.177 53.5787 363.252 55.7973 363.668 58.432C364.153 61.0667 364.049 63.5627 363.356 65.92C362.801 68.208 361.796 70.2187 360.34 71.952C358.953 73.6853 357.289 75.1413 355.348 76.32C353.476 77.4987 351.431 78.4693 349.212 79.232C346.993 79.9253 344.809 80.4453 342.66 80.792C340.58 81.1387 338.5 81.3467 336.42 81.416C334.34 81.5547 332.26 81.5893 330.18 81.52C325.119 81.4507 320.023 80.8267 314.892 79.648C309.761 78.4 305.151 76.1813 301.06 72.992V61.032C301.892 61.5867 302.689 62.176 303.452 62.8C304.215 63.424 305.012 64.0133 305.844 64.568C307.369 65.5387 308.929 66.4053 310.524 67.168C312.188 67.8613 313.887 68.4853 315.62 69.04C318.255 69.8027 320.959 70.392 323.732 70.808C326.575 71.224 329.348 71.3973 332.052 71.328C333.3 71.328 334.895 71.224 336.836 71.016C338.777 70.7387 340.753 70.3227 342.764 69.768C344.775 69.2133 346.577 68.4853 348.172 67.584C349.836 66.6827 350.98 65.5733 351.604 64.256C352.159 63.1467 352.263 61.968 351.916 60.72C351.569 59.472 350.945 58.4667 350.044 57.704C348.657 56.5253 346.889 55.6587 344.74 55.104C344.255 54.9653 343.284 54.8267 341.828 54.688C340.372 54.5493 338.777 54.4107 337.044 54.272C335.38 54.1333 333.716 53.9947 332.052 53.856C330.457 53.648 329.175 53.4747 328.204 53.336C322.865 52.504 318.567 51.568 315.308 50.528C311.911 49.3493 309.068 47.512 306.78 45.016C305.809 43.976 305.047 42.832 304.492 41.584C303.937 40.2667 303.521 38.9147 303.244 37.528C303.036 36.072 302.967 34.6507 303.036 33.264C303.175 31.808 303.452 30.4213 303.868 29.104C304.631 26.4693 306.017 24.1813 308.028 22.24C310.108 20.2987 312.361 18.7387 314.788 17.56C317.7 16.1733 320.681 15.3067 323.732 14.96C326.783 14.6133 329.903 14.6133 333.092 14.96C335.172 15.168 337.46 15.5147 339.956 16C342.521 16.4853 345.052 17.1093 347.548 17.872C350.113 18.6347 352.575 19.5013 354.932 20.472C357.289 21.4427 359.369 22.5173 361.172 23.696L356.908 33.16C354.897 31.8427 352.713 30.768 350.356 29.936C347.999 29.0347 345.676 28.2027 343.388 27.44C340.892 26.608 338.327 25.9493 335.692 25.464C333.127 24.9093 330.527 24.7013 327.892 24.84C326.297 24.9787 324.737 25.2213 323.212 25.568C321.687 25.8453 320.231 26.4347 318.844 27.336C317.873 27.8907 317.007 28.6187 316.244 29.52C315.551 30.4213 315.135 31.4613 314.996 32.64C314.788 33.8187 314.857 34.9627 315.204 36.072C315.551 37.1813 316.175 38.1173 317.076 38.88C318.74 40.1973 320.577 41.0987 322.588 41.584C323.697 41.9307 325.015 42.2773 326.54 42.624C328.065 42.9013 329.833 43.2133 331.844 43.56C333.161 43.768 334.791 44.0107 336.732 44.288C338.743 44.496 340.753 44.7387 342.764 45.016C344.775 45.224 346.612 45.4667 348.276 45.744C350.009 45.952 351.292 46.1947 352.124 46.472ZM410.182 14.648C413.51 14.648 416.769 14.96 419.958 15.584C423.217 16.208 426.302 17.1787 429.214 18.496C432.195 19.8133 434.934 21.512 437.43 23.592C439.926 25.6027 442.11 28.0293 443.982 30.872C445.438 33.0213 446.513 35.136 447.206 37.216C447.899 39.296 448.385 41.168 448.662 42.832C448.939 44.7733 449.043 46.6453 448.974 48.448L390.422 48.136L384.182 45.432C384.043 46.888 384.043 48.4827 384.182 50.216C384.39 51.88 384.841 53.6133 385.534 55.416C386.297 57.2187 387.337 59.0213 388.654 60.824C390.041 62.5573 391.878 64.2213 394.166 65.816C396.731 67.6187 399.609 68.9707 402.798 69.872C406.057 70.704 409.627 71.12 413.51 71.12C422.87 71.12 430.393 68.4853 436.078 63.216L443.982 70.912C441.971 72.8533 439.718 74.5173 437.222 75.904C434.795 77.2213 432.23 78.296 429.526 79.128C426.822 79.96 424.049 80.584 421.206 81C418.433 81.3467 415.694 81.52 412.99 81.52C404.809 81.52 397.459 80.0987 390.942 77.256C387.961 75.8693 385.222 74.2053 382.726 72.264C380.23 70.3227 378.115 68.1387 376.382 65.712C374.649 63.216 373.297 60.512 372.326 57.6C371.355 54.6187 370.87 51.4293 370.87 48.032C370.87 42.6933 371.979 37.944 374.198 33.784C376.417 29.624 379.329 26.1227 382.934 23.28C386.609 20.4373 390.803 18.288 395.518 16.832C400.302 15.376 405.19 14.648 410.182 14.648ZM435.35 43.456C434.934 40.2667 433.929 37.528 432.334 35.24C430.809 32.8827 428.867 30.9413 426.51 29.416C424.222 27.8213 421.657 26.6427 418.814 25.88C415.971 25.1173 413.094 24.736 410.182 24.736C407.201 24.736 404.289 25.1173 401.446 25.88C398.673 26.6427 396.142 27.8213 393.854 29.416C391.566 30.9413 389.625 32.8827 388.03 35.24C386.505 37.528 385.534 40.2667 385.118 43.456H435.35ZM489.38 15.064C498.81 15.064 505.951 17.456 510.804 22.24C515.727 26.9547 518.188 34.0267 518.188 43.456V81.104H506.332V44.808C506.332 38.2907 504.738 33.472 501.548 30.352C498.428 27.232 493.575 25.672 486.988 25.672C480.124 25.672 474.959 27.648 471.492 31.6C468.026 35.4827 466.292 40.752 466.292 47.408V81.104H454.436V15.168H466.292V19.224L465.876 20.264C463.242 26.3653 461.612 32.64 460.988 39.088C460.434 45.536 460.85 51.9493 462.236 58.328C462.791 51.672 463.658 45.536 464.836 39.92C465.391 37.5627 466.015 35.2053 466.708 32.848C467.402 30.4213 468.199 28.2027 469.1 26.192C470.002 24.1813 471.007 22.4133 472.116 20.888C473.295 19.3627 474.578 18.288 475.964 17.664C477.975 16.6933 480.09 16.0347 482.308 15.688C484.527 15.272 486.884 15.064 489.38 15.064ZM576.069 46.472C579.328 47.512 582.101 49.28 584.389 51.776C586.123 53.5787 587.197 55.7973 587.613 58.432C588.099 61.0667 587.995 63.5627 587.301 65.92C586.747 68.208 585.741 70.2187 584.285 71.952C582.899 73.6853 581.235 75.1413 579.293 76.32C577.421 77.4987 575.376 78.4693 573.157 79.232C570.939 79.9253 568.755 80.4453 566.605 80.792C564.525 81.1387 562.445 81.3467 560.365 81.416C558.285 81.5547 556.205 81.5893 554.125 81.52C549.064 81.4507 543.968 80.8267 538.837 79.648C533.707 78.4 529.096 76.1813 525.005 72.992V61.032C525.837 61.5867 526.635 62.176 527.397 62.8C528.16 63.424 528.957 64.0133 529.789 64.568C531.315 65.5387 532.875 66.4053 534.469 67.168C536.133 67.8613 537.832 68.4853 539.565 69.04C542.2 69.8027 544.904 70.392 547.677 70.808C550.52 71.224 553.293 71.3973 555.997 71.328C557.245 71.328 558.84 71.224 560.781 71.016C562.723 70.7387 564.699 70.3227 566.709 69.768C568.72 69.2133 570.523 68.4853 572.117 67.584C573.781 66.6827 574.925 65.5733 575.549 64.256C576.104 63.1467 576.208 61.968 575.861 60.72C575.515 59.472 574.891 58.4667 573.989 57.704C572.603 56.5253 570.835 55.6587 568.685 55.104C568.2 54.9653 567.229 54.8267 565.773 54.688C564.317 54.5493 562.723 54.4107 560.989 54.272C559.325 54.1333 557.661 53.9947 555.997 53.856C554.403 53.648 553.12 53.4747 552.149 53.336C546.811 52.504 542.512 51.568 539.253 50.528C535.856 49.3493 533.013 47.512 530.725 45.016C529.755 43.976 528.992 42.832 528.437 41.584C527.883 40.2667 527.467 38.9147 527.189 37.528C526.981 36.072 526.912 34.6507 526.981 33.264C527.12 31.808 527.397 30.4213 527.813 29.104C528.576 26.4693 529.963 24.1813 531.973 22.24C534.053 20.2987 536.307 18.7387 538.733 17.56C541.645 16.1733 544.627 15.3067 547.677 14.96C550.728 14.6133 553.848 14.6133 557.037 14.96C559.117 15.168 561.405 15.5147 563.901 16C566.467 16.4853 568.997 17.1093 571.493 17.872C574.059 18.6347 576.52 19.5013 578.877 20.472C581.235 21.4427 583.315 22.5173 585.117 23.696L580.853 33.16C578.843 31.8427 576.659 30.768 574.301 29.936C571.944 29.0347 569.621 28.2027 567.333 27.44C564.837 26.608 562.272 25.9493 559.637 25.464C557.072 24.9093 554.472 24.7013 551.837 24.84C550.243 24.9787 548.683 25.2213 547.157 25.568C545.632 25.8453 544.176 26.4347 542.789 27.336C541.819 27.8907 540.952 28.6187 540.189 29.52C539.496 30.4213 539.08 31.4613 538.941 32.64C538.733 33.8187 538.803 34.9627 539.149 36.072C539.496 37.1813 540.12 38.1173 541.021 38.88C542.685 40.1973 544.523 41.0987 546.533 41.584C547.643 41.9307 548.96 42.2773 550.485 42.624C552.011 42.9013 553.779 43.2133 555.789 43.56C557.107 43.768 558.736 44.0107 560.677 44.288C562.688 44.496 564.699 44.7387 566.709 45.016C568.72 45.224 570.557 45.4667 572.221 45.744C573.955 45.952 575.237 46.1947 576.069 46.472ZM634.127 14.648C637.455 14.648 640.714 14.96 643.903 15.584C647.162 16.208 650.247 17.1787 653.159 18.496C656.141 19.8133 658.879 21.512 661.375 23.592C663.871 25.6027 666.055 28.0293 667.927 30.872C669.383 33.0213 670.458 35.136 671.151 37.216C671.845 39.296 672.33 41.168 672.607 42.832C672.885 44.7733 672.989 46.6453 672.919 48.448L614.367 48.136L608.127 45.432C607.989 46.888 607.989 48.4827 608.127 50.216C608.335 51.88 608.786 53.6133 609.479 55.416C610.242 57.2187 611.282 59.0213 612.599 60.824C613.986 62.5573 615.823 64.2213 618.111 65.816C620.677 67.6187 623.554 68.9707 626.743 69.872C630.002 70.704 633.573 71.12 637.455 71.12C646.815 71.12 654.338 68.4853 660.023 63.216L667.927 70.912C665.917 72.8533 663.663 74.5173 661.167 75.904C658.741 77.2213 656.175 78.296 653.471 79.128C650.767 79.96 647.994 80.584 645.151 81C642.378 81.3467 639.639 81.52 636.935 81.52C628.754 81.52 621.405 80.0987 614.887 77.256C611.906 75.8693 609.167 74.2053 606.671 72.264C604.175 70.3227 602.061 68.1387 600.327 65.712C598.594 63.216 597.242 60.512 596.271 57.6C595.301 54.6187 594.815 51.4293 594.815 48.032C594.815 42.6933 595.925 37.944 598.143 33.784C600.362 29.624 603.274 26.1227 606.879 23.28C610.554 20.4373 614.749 18.288 619.463 16.832C624.247 15.376 629.135 14.648 634.127 14.648ZM659.295 43.456C658.879 40.2667 657.874 37.528 656.279 35.24C654.754 32.8827 652.813 30.9413 650.455 29.416C648.167 27.8213 645.602 26.6427 642.759 25.88C639.917 25.1173 637.039 24.736 634.127 24.736C631.146 24.736 628.234 25.1173 625.391 25.88C622.618 26.6427 620.087 27.8213 617.799 29.416C615.511 30.9413 613.57 32.8827 611.975 35.24C610.45 37.528 609.479 40.2667 609.063 43.456H659.295Z" fill="#785FEC"/>
</svg>
